<svg xmlns="http://www.w3.org/2000/svg" width="303.298" height="243.499" viewBox="0 0 303.298 243.499">
  <g id="Group_983" data-name="Group 983" transform="translate(-1456.5 -6165.762)">
    <text id="Click_on_REQUEST_A_CALL_BACK_or_dial_1800-Manemakers_to_reach_out_to_our_experts." data-name="Click on REQUEST A CALL BACK or dial 1800-Manemakers to reach out to our experts." transform="translate(1486.01 6219.142)" font-size="28" font-family="Roboto-Regular, Roboto" letter-spacing="0.007em"><tspan x="0" y="27">Click on REQUEST A </tspan><tspan x="0" y="61">CALL BACK or dial </tspan><tspan x="0" y="95">1800-Manemakers </tspan></text>
    <g id="Layer_2" data-name="Layer 2" transform="translate(1456.5 6165.825)">
      <g id="Layer_1" data-name="Layer 1" transform="translate(2.5 2.508)">
        <path id="Path_4870" data-name="Path 4870" d="M54.422,174.211,23.715,236.72,118.226,178.1a9.083,9.083,0,0,1,6.459-1.212L259.02,202A35.269,35.269,0,0,0,300.8,167.334V37.771A35.261,35.261,0,0,0,259.655,3L31.9,41.439A35.269,35.269,0,0,0,2.5,76.215v47.627A35.269,35.269,0,0,0,32,158.636l15.759,2.615a9.083,9.083,0,0,1,6.668,12.96Z" transform="translate(-2.5 -2.508)" fill="none" stroke="#000" stroke-miterlimit="10" stroke-width="5"/>
      </g>
    </g>
  </g>
</svg>
